<?xml version="1.0" encoding="utf-8"?>
<!-- Generator: Adobe Illustrator 25.4.1, SVG Export Plug-In . SVG Version: 6.00 Build 0)  -->
<svg version="1.1" id="Layer_1" xmlns="http://www.w3.org/2000/svg" xmlns:xlink="http://www.w3.org/1999/xlink" x="0px" y="0px"
	 viewBox="0 0 1080 1080" style="enable-background:new 0 0 1080 1080;" xml:space="preserve">
<style type="text/css">
	.st0{fill:#FFFFFF;}
</style>
<g>
	<path d="M199.8,27c166.8,0,333.6,0,500.4,0c5.1,4.6,10.8,8.8,15.3,14c62.3,70.9,124.3,142,186.7,212.9c6.8,7.7,10.1,16,10,26.2
		c-0.2,34-0.1,68-0.1,102.1c0,3.5,0,7.1,0,11.3c8.3,0,15.2-0.1,22.2,0c34.2,0.4,59.5,24,59.6,58.2c0.6,99.1,0.5,198.1,0,297.2
		c-0.2,34.2-25.1,57.9-59.3,58.6c-7.2,0.1-14.5,0-22.5,0c0,4.8,0,8.4,0,12c0,62-0.5,124.1,0.2,186.1c0.4,27.7-18.8,46.7-46.4,46.6
		c-217.1-0.6-434.2-0.6-651.4,0c-28.5,0.1-47.2-19.3-46.8-47.2c0.9-61.7,0.3-123.4,0.3-185.1c0-3.9,0-7.7,0-12.4
		c-8.2,0-15.2,0.1-22.1,0c-34.7-0.6-59.6-24.6-59.8-59.2c-0.4-98.4-0.4-196.8,0-295.2c0.1-35.2,25.1-59.2,60.3-59.6
		c6.9-0.1,13.8,0,21.6,0c0-5,0-8.9,0-12.9c0-101.1,0.3-202.1-0.2-303.2C167.6,52.7,176.2,35.6,199.8,27z M209.3,393.1
		c220.8,0,440.8,0,661.5,0c0-33.2,0-66.1,0-99.9c-4,0-7.6,0-11.2,0c-53,0-106,0-159.1,0c-19.6,0-26.4-6.8-26.4-26.5
		c0-62.4,0-124.7,0-187.1c0-3.9,0-7.7,0-11.9c-155.6,0-309.9,0-464.8,0C209.3,176.1,209.3,284,209.3,393.1z M209.4,999.9
		c220.9,0,440.9,0,661.3,0c0-64.2,0-128,0-192c-220.7,0-440.7,0-661.3,0C209.4,871.8,209.4,935.3,209.4,999.9z M377.7,689.6
		c3.5-5.5,5.6-8.7,7.7-11.9c42.7-62,85.4-124,128-186.1c2-2.9,4.5-6.3,4.7-9.6c0.6-11.9,0.2-23.8,0.2-36c-72.7,0-144.4,0-216.1,0
		c0,18.6,0,36.4,0,55.6c42.9,0,85.3,0,129.1,0c-2.9,4.4-4.5,7.2-6.4,9.9c-42,60.5-83.3,121.4-126.4,181
		c-12.3,16.9-10.6,33.6-10.1,51.8c77.6,0,154.4,0,231.6,0c0-18.5,0-36.3,0-54.8C473.2,689.6,427,689.6,377.7,689.6z M758,639.6
		c21.4-1.4,41.6-1,61-4.4c41.3-7.1,81.2-30.7,86.1-88.8c4-47.1-21.8-86.1-67.6-96.9c-48.5-11.4-97.2-6.4-145.9-0.3
		c0,98.9,0,197,0,295.1c22.4,0,43.9,0,66.3,0C758,708.7,758,673.8,758,639.6z M564.7,445.8c0,100,0,199.2,0,298.7
		c22.5,0,44.4,0,66.8,0c0-99.8,0-199,0-298.7C609.1,445.8,587.2,445.8,564.7,445.8z"/>
	<path class="st0" d="M377.7,689.6c49.2,0,95.5,0,142.3,0c0,18.5,0,36.4,0,54.8c-77.2,0-154.1,0-231.6,0
		c-0.5-18.2-2.1-34.9,10.1-51.8c43.2-59.6,84.4-120.6,126.4-181c1.9-2.7,3.5-5.5,6.4-9.9c-43.8,0-86.2,0-129.1,0
		c0-19.2,0-37.1,0-55.6c71.7,0,143.4,0,216.1,0c0,12.2,0.3,24.2-0.2,36c-0.2,3.3-2.7,6.7-4.7,9.6c-42.6,62.1-85.3,124-128,186.1
		C383.3,680.8,381.3,684.1,377.7,689.6z"/>
	<path class="st0" d="M758,639.6c0,34.3,0,69.2,0,104.8c-22.3,0-43.8,0-66.3,0c0-98,0-196.1,0-295.1c48.6-6.1,97.4-11.1,145.9,0.3
		c45.8,10.8,71.5,49.8,67.6,96.9c-4.9,58.1-44.9,81.7-86.1,88.8C799.6,638.5,779.5,638.1,758,639.6z M758.5,585.2
		c18.7,3.7,36.5,3.1,53.5-4.2c18.6-8,28.2-25.3,26.6-47c-1.5-19.5-12-32.2-31.6-37.5c-16.1-4.3-32.1-3.4-48.5,0.2
		C758.5,526.3,758.5,555.2,758.5,585.2z"/>
	<path class="st0" d="M564.7,445.8c22.5,0,44.4,0,66.8,0c0,99.7,0,198.9,0,298.7c-22.4,0-44.2,0-66.8,0
		C564.7,645,564.7,545.8,564.7,445.8z"/>
	<path d="M758.5,585.2c0-30,0-58.9,0-88.5c16.4-3.5,32.5-4.5,48.5-0.2c19.6,5.3,30.2,18,31.6,37.5c1.6,21.7-8,39-26.6,47
		C794.9,588.3,777.2,588.9,758.5,585.2z"/>
</g>
</svg>
