<svg id="Layer_1" data-name="Layer 1" xmlns="http://www.w3.org/2000/svg" viewBox="0 0 1080 1080"><defs><style>.cls-1{fill:#231f20;}</style></defs><path d="M727.66,1037.72H156.75c-1.69-.65-3.35-1.41-5.07-1.94-12.34-3.79-23.17-9.75-31.76-19.76-11.72-13.67-15.53-29.59-15.53-47.11q.1-413.79,0-827.59c0-11.4-.14-22.8,0-34.19.31-20.31,6.6-38.33,23.62-50.4,8.63-6.12,19-9.72,28.65-14.45H923.27c4.18,1.54,8.79,2.42,12.47,4.76,8.34,5.29,17.17,10.35,24.09,17.22,12.53,12.44,15.79,28.77,15.78,46q-.09,188.75,0,377.5,0,146.63-.17,293.25c0,3.81-1.23,8.73-3.75,11.27q-100.81,101.36-202,202.29C755.43,1008.77,741.63,1023.33,727.66,1037.72Zm-73.53-71.85v-9.76c0-58.56-.09-117.12,0-175.69.09-40.18,25.5-65.45,65.56-65.47q88.24-.06,176.49,0h8.88V114.23H175V965.87ZM884.78,780.41c-2.14-.22-4.15-.62-6.16-.62-51.1,0-102.2.07-153.29-.17-6.53,0-8,2.36-7.94,8.36.18,50.82.09,101.65.13,152.48a61.11,61.11,0,0,0,.72,6.62Z"/><path d="M539.62,477.15H267.72c-20.39,0-30.23-6.34-36.12-23.19s-1.19-38.44,12.42-47.58c5.89-4,14.37-5.61,21.68-5.66,63.07-.43,126.15-.27,189.22-.26l357,0c20.76,0,30.79,6.48,36.64,23.65s.93,38.33-12.87,47.43c-5.91,3.9-14.41,5.35-21.75,5.38C722.48,477.27,631.05,477.15,539.62,477.15Z"/><path d="M540.42,565H813.91c19.45,0,29.55,7.19,34.91,24.72,5.42,17.77-.25,38.64-14.18,46.92-5.54,3.29-13,4.68-19.58,4.7-77.38.32-154.76.2-232.15.2H266.5c-18.64,0-28.89-6.61-34.45-22.15-6.17-17.29-2-39.23,11-48,5.91-4,14.25-6.1,21.5-6.15,65.72-.45,131.44-.26,197.17-.26Z"/><path d="M399.85,808H267.12c-19.52,0-29.65-6.66-35.4-23.14-5.95-17-1.09-38.85,12.1-47.66a38.31,38.31,0,0,1,20.05-5.92c90.87-.38,181.74-.27,272.61-.24,26.84,0,37.68,24.61,33.09,48.76C566,798.49,554,808,535,808Q467.4,808.13,399.85,808Z"/><path class="cls-1" d="M431.37,194.89v28.32h-40V342.13H355.56V223.21H316V194.89Z"/><path class="cls-1" d="M555.63,342.13l-31-45.82-26.65,45.82H457.12l47.06-75.81-48.52-71.43h42.28l30.19,44.36,26-44.36h40.61L548.34,269l49.56,73.1Z"/><path class="cls-1" d="M717.44,194.89v28.32h-40V342.13H641.64V223.21H602.07V194.89Z"/></svg>