<svg id="Layer_1" data-name="Layer 1" xmlns="http://www.w3.org/2000/svg" xmlns:xlink="http://www.w3.org/1999/xlink" viewBox="0 0 1080 1080"><defs><style>.cls-1{fill:none;}.cls-2{clipPath:url(#clipPath);}</style><clipPath id="clipPath"><rect class="cls-1" x="31.26" y="31.26" width="1017.49" height="1017.49"/></clipPath></defs><g class="cls-2"><path d="M31.26,338.75c6.57-16,10.81-33.59,20.18-47.78,22-33.28,54.85-48.52,94.51-48.55q228.08-.18,456.16.08c57.17.15,99.83,33.95,112.22,87.51a119.28,119.28,0,0,1,2.85,26.52q.27,184.47.05,369c-.1,56.27-36.18,100.79-90.51,112-9.62,2-19.7,2.32-29.57,2.33q-223.12.21-446.24.08c-63.07,0-103.66-32.3-118.23-93.78a11.37,11.37,0,0,0-1.42-2.59Z"/><path d="M1046.89,540.7c0,57.52.21,115-.09,172.57-.19,37.13-33.15,68.23-70,65.12-11.1-.94-22.71-5.06-32.51-10.54C889,736.9,834.24,705,779.16,673.7c-5.32-3-7.14-6.55-7.12-12.56q.26-120.51,0-241c0-6.61,2.33-10,7.85-13.12,54.43-31.14,109.1-61.89,162.9-94.1,48.67-29.14,105.75,5.8,104.45,60.18C1045.86,428.93,1046.9,484.83,1046.89,540.7Z"/></g></svg>