<svg id="Layer_1" data-name="Layer 1" xmlns="http://www.w3.org/2000/svg" xmlns:xlink="http://www.w3.org/1999/xlink" viewBox="0 0 1080 1080"><defs><style>.cls-1{fill:none;}.cls-2{clipPath:url(#clipPath);}.cls-3{fill:#fff;}</style><clipPath id="clipPath"><rect class="cls-1" x="19.77" y="19.77" width="1040.47" height="1040.47"/></clipPath></defs><g class="cls-2"><path d="M194.19,19.77H701.24c5.2,4.69,10.93,8.93,15.53,14.16q94.66,107.76,189.17,215.69c6.9,7.84,10.23,16.17,10.16,26.56-.24,34.47-.09,68.94-.09,103.41V391c8.39,0,15.44-.08,22.48,0,34.63.43,60.25,24.35,60.44,59q.84,150.56,0,301.13c-.17,34.64-25.48,58.69-60.13,59.4-7.32.15-14.65,0-22.82,0V822.7c0,62.87-.55,125.74.25,188.59.36,28-19,47.3-47,47.22q-330-.93-660.07,0c-28.85.09-47.87-19.53-47.46-47.85.89-62.51.27-125,.27-187.57V810.57c-8.35,0-15.38.1-22.42,0-35.16-.63-60.43-24.89-60.58-60q-.61-149.55,0-299.11c.12-35.71,25.44-60,61.15-60.38,7-.07,14,0,21.87,0V378c0-102.41.35-204.82-.25-307.22C161.57,45.81,170.22,28.4,194.19,19.77ZM204,60.83V390.61h670.2V289.4H862.64q-80.08,0-160.17,0c-21.18,0-27.71-6.59-27.72-28q0-94.27,0-188.56v-12ZM874.14,811.24H203.82v194.07H874.14ZM258.66,640.61c17.31,0,32.82.54,48.29-.1,57.3-2.35,94.66-37.5,100.85-94.39,4.31-39.67-16.36-76.37-53.81-90.22-17.39-6.42-36.52-9.27-55.11-11.08-36-3.52-71.91.45-107.61,5.42V749.4h67.39ZM453.85,450.14V749.36h67.4V640.92c27.36,2.54,53.07.91,78.39-6.27,74.08-21,83.76-100.13,59-142.8-18.53-32-49.21-42.5-83.2-46.24C535,441.15,494.64,444.47,453.85,450.14Zm470.71-3.78H692.65V503.5h81.53V749.29h68.53V502.6h81.85Z"/><path class="cls-3" d="M258.66,640.61V749.4H191.27V450.24c35.7-5,71.57-8.94,107.61-5.42,18.59,1.81,37.72,4.66,55.11,11.08,37.45,13.85,58.12,50.55,53.81,90.22-6.19,56.89-43.55,92-100.85,94.39C291.48,641.15,276,640.61,258.66,640.61Zm0-98.16c0,12.49.31,25-.13,37.47-.23,6.42,1.94,9.75,8.37,9.47,12.09-.54,24.39-.11,36.19-2.3,21.79-4.05,35.95-21,37.18-42.07,1.38-23.56-7.59-40.51-28.3-45.33-15.38-3.59-31.95-2.28-48-2.39-1.75,0-4.94,4.93-5.06,7.69C258.35,517.45,258.66,530,258.65,542.45Z"/><path class="cls-3" d="M453.85,450.14c40.79-5.67,81.11-9,121.6-4.53,34,3.74,64.67,14.28,83.2,46.24,24.75,42.67,15.07,121.79-59,142.8-25.32,7.18-51,8.81-78.39,6.27V749.36h-67.4ZM520.77,498v90.23c20.33,2.34,39.34,3.2,57.32-5.75,16.71-8.31,26.25-26.25,24.83-45-1.44-19.12-10.71-32.39-29-38.39C556.83,493.51,539.43,495,520.77,498Z"/><path class="cls-3" d="M924.56,446.36V502.6H842.71V749.29H774.18V503.5H692.65V446.36Z"/><path d="M258.65,542.45c0-12.49-.3-25,.25-37.46.12-2.76,3.31-7.7,5.06-7.69,16.05.11,32.62-1.2,48,2.39,20.71,4.82,29.68,21.77,28.3,45.33-1.23,21.07-15.39,38-37.18,42.07-11.8,2.19-24.1,1.76-36.19,2.3-6.43.28-8.6-3-8.37-9.47C259,567.45,258.65,554.94,258.65,542.45Z"/><path d="M520.77,498c18.66-3,36.06-4.52,53.12,1.08,18.32,6,27.59,19.27,29,38.39,1.42,18.76-8.12,36.7-24.83,45-18,9-37,8.09-57.32,5.75V498Z"/></g></svg>