<svg id="Layer_1" data-name="Layer 1" xmlns="http://www.w3.org/2000/svg" viewBox="0 0 1080 1080"><path d="M322.54,540.8c8,7.86,15.1,14.86,22.18,21.92,21.92,21.84,43.91,43.61,65.68,65.59,11.72,11.83,7.47,30.26-7.92,34.89-8.56,2.57-15.79-.12-22.05-6.41q-38.6-38.82-77.36-77.46c-7.54-7.55-15.14-15-22.63-22.64-9.64-9.78-9.78-21.44-.17-31.08q50.16-50.34,100.48-100.52c9.19-9.17,21.72-9.59,30.2-1.27s8.21,21.21-1.24,30.67Q369.47,494.83,329.05,535C327.24,536.79,325.23,538.4,322.54,540.8Z"/><path d="M757.41,542.14c-29.86-30-58.4-58.5-86.61-87.32a28.93,28.93,0,0,1-7.49-13.53c-1.88-9.16,2.92-17.19,10.81-21.19,8.08-4.08,17.21-2.74,24.13,4.08,15.79,15.59,31.43,31.35,47.12,47q26.26,26.25,52.51,52.51c11.88,11.9,12,22.6.27,34.32q-49.3,49.38-98.7,98.68c-12.28,12.24-30.59,8.72-35.58-6.81-2.82-8.79,0-16.12,6.49-22.57q40.7-40.33,81.18-80.88C753.18,544.84,755.3,543.68,757.41,542.14Z"/><path d="M481.33,664.05c-18.5-.07-28.22-16.28-20.87-30.17,4.37-8.28,9.48-16.17,14.3-24.21q54.74-91.3,109.48-182.58c6.49-10.82,18.27-14.31,28.51-8.41s13.28,18.46,6.74,29.38q-61.11,102-122.28,204C492.84,659.36,487,663.9,481.33,664.05Z"/><path d="M895.89,1033.12H184.11c-53.29,0-96.64-47.24-96.64-105.31V152.19c0-58.07,43.35-105.31,96.64-105.31H895.89c53.29,0,96.64,47.24,96.64,105.31V927.81C992.53,985.88,949.18,1033.12,895.89,1033.12ZM184.11,99.88c-26.47,0-48,23.47-48,52.31V927.81c0,28.84,21.53,52.31,48,52.31H895.89c26.47,0,48-23.47,48-52.31V152.19c0-28.84-21.53-52.31-48-52.31Z"/></svg>