<svg id="Layer_1" data-name="Layer 1" xmlns="http://www.w3.org/2000/svg" xmlns:xlink="http://www.w3.org/1999/xlink" viewBox="0 0 1080 1080"><defs><style>.cls-1{fill:none;}.cls-2{clipPath:url(#clipPath);}</style><clipPath id="clipPath"><rect class="cls-1" x="42.89" y="38.84" width="1002.32" height="1002.32"/></clipPath></defs><g class="cls-2"><path d="M42.89,890.71V187.33c6.19-12.48,14.62-21.11,29.54-23.83,81.15-14.81,162.16-30.37,243.23-45.62Q441.59,94.2,567.53,70.67c21.11-3.91,37.9,10.59,38,32.27.13,27.35,0,54.7.05,82.06,0,3.15.29,6.3.47,10.18h400c26,0,37.18,11.31,37.18,37.55,0,204.17-.25,408.34.35,612.5.07,22.91-14,38.13-38.41,38-129.27-.78-258.54-.37-387.82-.37H605.56c0,31.65.1,61.9,0,92.15-.09,22-17.32,36.35-39,32.31q-89.08-16.61-178.12-33.42C285.31,954.56,182.25,935,79.07,916.1,62.51,913.06,49.51,907,42.89,890.71ZM980.07,820V258.44H606.13v61.79h12.06c88.24,0,176.49-.14,264.73.25a46,46,0,0,1,22,5.83c11.69,6.81,16,21.47,11.93,34.2-4.38,13.87-15.61,22.12-30.87,22.14q-134.33.09-268.64,0h-11v62.59h12.51c87.92,0,175.84-.13,263.76.25a46.81,46.81,0,0,1,22.05,5.67c11.7,6.65,16.14,21.4,12.26,34.1-4.26,13.9-15.56,22.38-30.68,22.4q-134.32.1-268.64,0H606.27v62.59h33.82q122.1,0,244.22-.07c14.08,0,24.77,5.38,30.93,18,10.35,21.19-5.18,44.45-29.67,44.48q-133.83.15-267.66,0H606.17v62.6h12.14q132.86,0,265.71-.08c14.49,0,25.41,5.49,31.51,18.62,9.75,21-5.71,43.83-29.67,43.86q-134.33.16-268.64.05H606.07V820ZM245.6,566.3l-2.13-.1c-1.68-11.49-3.33-23-5.05-34.45-3.17-21.19-5.53-42.56-9.85-63.52-3.29-16-19.92-25.55-35-22.22-16.92,3.74-27.61,18.46-25.24,35.21q15.36,108.12,31,216.19c1.9,13,8.53,23.14,21.95,27.2,18.09,5.49,32.53-3,40.37-23.85q29.18-77.49,58.22-155c1.15-3.07,2.47-6.08,4.47-11,2.47,6.24,4.08,10.11,5.55,14,19.42,51.67,38.69,103.4,58.29,155,5.87,15.46,19.54,24.38,32.79,22.53,15.11-2.12,26.34-13.28,28.21-29.31C454,655.7,458.42,614.31,463,573c5.63-50.74,11.11-101.5,17-152.21,2.21-19.06-8.65-34.83-26.95-37.66-16.14-2.5-32.47,10.43-34.79,28.3-2.44,18.69-4.13,37.49-6.2,56.23Q407,512.9,402,558.18a19.54,19.54,0,0,1-5.23-8.25Q376,494.76,355.4,439.56c-3.95-10.61-10-18.83-21.59-21.89-18.92-5-33.47,2.69-40.73,22Q269.25,502.93,245.6,566.3Z"/></g></svg>