<svg id="Layer_1" data-name="Layer 1" xmlns="http://www.w3.org/2000/svg" viewBox="0 0 1080 1080"><path d="M356.93,57.66H927.85c1.69.65,3.34,1.41,5.07,1.94,12.33,3.79,23.16,9.75,31.76,19.77C976.39,93,980.21,109,980.2,126.47q-.11,413.8-.05,827.6c0,11.39.15,22.79,0,34.18-.31,20.32-6.61,38.34-23.63,50.41-8.62,6.11-19,9.71-28.64,14.45H161.33c-4.19-1.55-8.79-2.43-12.47-4.77-8.34-5.29-17.18-10.34-24.1-17.22-12.53-12.44-15.79-28.77-15.78-46q.1-188.74,0-377.49,0-146.64.16-293.26c0-3.81,1.23-8.72,3.76-11.26Q213.76,201.76,315,100.81C329.16,86.62,343,72.05,356.93,57.66Zm73.54,71.86v9.75c0,58.57.09,117.13,0,175.69-.09,40.18-25.49,65.45-65.55,65.48q-88.26,0-176.5,0H179.5V981.16H909.62V129.52ZM199.82,315a59.22,59.22,0,0,0,6.16.62c51.09,0,102.19-.06,153.29.18,6.52,0,8-2.37,7.94-8.36-.19-50.83-.1-101.66-.14-152.49a61.32,61.32,0,0,0-.71-6.62Z"/></svg>