<?xml version="1.0" encoding="utf-8"?>
<!-- Generator: Adobe Illustrator 25.4.1, SVG Export Plug-In . SVG Version: 6.00 Build 0)  -->
<svg version="1.1" id="Layer_1" xmlns="http://www.w3.org/2000/svg" xmlns:xlink="http://www.w3.org/1999/xlink" x="0px" y="0px"
	 viewBox="0 0 1080 1080" style="enable-background:new 0 0 1080 1080;" xml:space="preserve">
<g>
	<path d="M16.7,210.9c2.1-7.8,3.9-15.8,6.3-23.5c17.9-58.3,72.5-99,133.1-99.1c200.6-0.1,401.3-0.1,601.9,0
		c77.8,0,141.3,64,141.6,141.9c0,6.8,0,13.5,0,20.5c15.1,1,29.8,1,44,3.1c67.6,10.2,119.2,70.3,119.4,138.7
		c0.2,50.4,0.1,100.8,0,151.3c0,25.1-16.9,43-40.5,43.1c-24.1,0.1-41.2-17.8-41.2-43.4c0-47.7,0-95.4,0-143.1
		c-0.1-41.2-25.7-66.9-67-66.9c-195.9,0-391.7,0-587.6,0c-40.2,0-64.9,24.7-64.9,65c0,146.2,0,292.3,0,438.5c0,3.1,0,6.1,0,11.9
		c3.8-4.2,6.1-6.7,8.4-9.4c62.7-73.2,125.3-146.5,187.9-219.8c21.5-25.2,49.1-25.1,70.1,0.6c25.9,31.6,51.8,63.2,77.7,94.8
		c1.7,2.1,3.6,4,6.1,6.7c18.7-22.2,37-43.9,55.3-65.7c42.5-50.6,84.9-101.2,127.5-151.8c20-23.7,47.1-24.1,67.3-0.5
		c63.2,74.1,126.1,148.5,189.2,222.7c8.1,9.5,11.9,20.1,11.8,32.7c-0.4,30.7,0,61.3-0.2,92c-0.3,76.6-64.1,140.4-140.8,140.5
		c-200.3,0.1-400.6,0.1-600.9,0c-77.1-0.1-140.9-64.2-141.1-141.4c0-6.8,0-13.6,0-22.1c-4.2,0-8.1-0.2-12,0
		c-82.4,4.1-141.7-57.8-149.9-121c-0.2-1.3-1.1-2.5-1.6-3.7C16.7,539.3,16.7,375.1,16.7,210.9z M318.5,909.6
		c4.2,0.2,6.1,0.5,8.1,0.5c197.5,0,395,0.1,592.5-0.1c35.6,0,61.8-26.5,62.3-62c0.3-23.5,0.3-47-0.2-70.5c-0.1-4.2-2.3-9.2-5.1-12.5
		c-25.8-30.8-51.8-61.4-77.8-92c-22.9-26.9-45.8-53.9-69.1-81.2c-2.5,2.8-4.6,5-6.5,7.3c-58.9,70.1-117.7,140.3-176.7,210.3
		c-21.1,25.1-48.1,24.7-69.2-0.6c-8.1-9.7-16-19.4-24-29.2c-19.8-24.1-39.7-48.3-60.3-73.3C434.5,773.9,377.2,840.9,318.5,909.6z
		 M180.3,745.9c0-5.1,0-9.1,0-13.2c0-112.8,0-225.5,0-338.3c0-6.1-0.2-12.3,0.7-18.4c10.5-74,68.6-124.3,143.4-124.3
		c160.4,0,320.8,0,481.2,0c3.9,0,7.9,0,12.3,0c0-4.8,0-8.2,0-11.6c0-45.6-24.5-70.3-69.8-70.3c-194.5,0-388.9,0-583.4,0
		c-42.2,0-66.3,24.2-66.3,66.7c0,39.5,0,79,0,118.5c0,108.7,0,217.3,0,326c0,19.7,6.3,36.7,21.3,50
		C137,746.4,157.6,747.8,180.3,745.9z"/>
	<path d="M434,421.5c28.5,0.1,50.8,22.7,50.7,51.4c-0.1,28.4-22.7,50.8-51.4,50.7c-28.4-0.1-50.8-22.7-50.7-51.4
		C382.7,443.7,405.3,421.4,434,421.5z"/>
</g>
</svg>
