<svg id="Layer_1" data-name="Layer 1" xmlns="http://www.w3.org/2000/svg" viewBox="0 0 1080 1080"><defs><style>.cls-1{stroke:#231f20;stroke-miterlimit:10;strokeWidth:11px;}.cls-2{fill:#fff;}</style></defs><path class="cls-1" d="M881.26,1054H198.74c-23.71-8.55-32.46-25.75-32.15-50.46.77-60.86.25-121.73.25-182.59v-12c-8.58,0-15.59.12-22.58,0-34.26-.71-59.35-24.56-59.52-58.8q-.72-149,0-298c.19-34.28,25.51-57.93,59.8-58.36,7.22-.09,14.44,0,22.27,0v-13.3c0-102.34.43-204.68-.28-307C166.37,45.21,185.15,25.9,213.49,26c158.21.75,316.43.44,474.64.18,11,0,18.91,3.51,26.08,11.75q94.23,108.16,189,215.87c6.83,7.76,10.11,16,10,26.29-.24,34.11-.09,68.22-.09,102.33v11.3c8.33,0,15.3-.08,22.27,0,34.26.43,59.61,24.11,59.8,58.36q.82,149,0,298c-.17,34.28-25.22,58.08-59.51,58.79-7.25.15-14.5,0-22.59,0v12c0,60.87-.52,121.74.25,182.6C913.72,1028.23,905,1045.4,881.26,1054Zm-9.82-660.59V293.18H859.56q-79.26,0-158.53,0c-19.74,0-26.58-6.81-26.59-26.45q0-93.81,0-187.61v-12H208.3v326.3ZM208.28,1001.87H871.55V809.33H208.28ZM729.93,716c20.42,0,38.72.22,57-.27,2.35-.06,5.48-3.32,6.73-5.85,6.06-12.26,11.69-24.74,17.3-37.22,6.23-13.86,12.28-27.8,18.87-42.76,2.18,4.18,3.77,7.1,5.25,10.07,11.48,23,22.83,46.08,34.55,69,1.45,2.85,4.74,6.68,7.28,6.75,18.59.58,37.2.31,57.45.31-2.53-4.72-4.1-7.87-5.87-10.92C908.74,671,889.1,636.78,869,602.86c-3.67-6.2-3.93-10.8-.15-17.18,19.21-32.48,37.88-65.28,56.72-98,1.6-2.79,3-5.68,5.18-9.8-19.67,0-38-.2-56.24.25-2.38.06-5.69,3-6.85,5.43-7.2,15.05-14,30.28-20.74,45.54-4.47,10.14-8.6,20.44-13.58,32.33-2.67-5.46-4.44-9-6.11-12.51-10.08-21.43-20-42.93-30.32-64.27-1.27-2.64-4.06-6.39-6.23-6.45-18.87-.51-37.76-.29-57.92-.29,2.27,4.3,3.73,7.22,5.33,10.05,18.7,33.16,37.29,66.38,56.26,99.39,3.35,5.83,3.5,10.25,0,16.2C773.09,640.2,752.18,677.08,729.93,716ZM144.84,477.89A30.46,30.46,0,0,0,146,481.3c19.65,34.92,39.12,69.94,59.13,104.65,3.94,6.82,4.34,11.76.19,18.82-19.67,33.37-38.64,67.15-57.83,100.79-1.7,3-3.24,6.06-5.59,10.47,19,0,36-.29,53,.15,6.06.15,8.93-2.12,11.23-7.42,10.23-23.56,20.79-47,31.27-70.42,1.11-2.48,2.49-4.84,4.26-8.27,13.53,27.06,26.27,52.76,39.29,78.31,1.49,2.93,4.49,7.16,6.91,7.24,18.88.6,37.79.33,58.05.33-2.42-4.53-3.88-7.44-5.5-10.25-19.9-34.4-39.65-68.89-59.91-103.07-3.77-6.37-3.53-10.91.18-17.18,19-32.19,37.56-64.68,56.22-97.1,1.73-3,3.12-6.22,5.23-10.47-18.49,0-35.5.24-52.49-.13-5.8-.13-8.87,1.6-11.2,7.09-9.62,22.72-19.71,45.25-29.68,67.83-1.07,2.44-2.42,4.76-4.13,8.09-12.39-26.26-23.92-51.06-35.89-75.64-1.46-3-5.21-6.81-8-6.91C182.4,477.59,164.07,477.89,144.84,477.89Zm556,9.32c-30.57-17.15-92.64-19.33-125.49,6.83-25.48,20.3-32.45,59.58-14.28,85.55,11.33,16.19,28,25.29,45.74,32.89,12.84,5.5,26.12,10.5,37.91,17.81,17,10.52,14.91,33.1-3.56,40.57-8.33,3.36-18.41,5.12-27.24,4-18.63-2.35-37-7.07-56.27-11-2.44,9.9-4.94,22-8.5,33.74-1.79,5.9-.35,8.59,5.08,10.52,39.11,13.94,78.42,17,117-.56,48-21.86,53.43-86.43,9.76-116.13-11.72-8-25.52-12.88-38.38-19.16-9.28-4.52-19.16-8.09-27.77-13.65-15-9.72-13.51-28.52,2.76-36,5.89-2.69,13-4.75,19.28-4.16,17.38,1.63,34.62,4.81,53.12,7.56ZM429.34,671V478.43H376.23V715.21H523.55V671Z"/><path class="cls-2" d="M729.93,716c22.25-38.9,43.16-75.78,64.5-112.41,3.46-6,3.31-10.37,0-16.2-19-33-37.56-66.23-56.26-99.39-1.6-2.83-3.06-5.75-5.33-10.05,20.16,0,39.05-.22,57.92.29,2.17.06,5,3.81,6.23,6.45,10.27,21.34,20.24,42.84,30.32,64.27,1.67,3.55,3.44,7,6.11,12.51,5-11.89,9.11-22.19,13.58-32.33,6.73-15.26,13.54-30.49,20.74-45.54,1.16-2.43,4.47-5.37,6.85-5.43,18.28-.45,36.57-.25,56.24-.25-2.17,4.12-3.58,7-5.18,9.8-18.84,32.7-37.51,65.5-56.72,98-3.78,6.38-3.52,11,.15,17.18,20.06,33.92,39.7,68.09,59.45,102.19,1.77,3.05,3.34,6.2,5.87,10.92-20.25,0-38.86.27-57.45-.31-2.54-.07-5.83-3.9-7.28-6.75C857.91,686,846.56,663,835.08,640c-1.48-3-3.07-5.89-5.25-10.07-6.59,15-12.64,28.9-18.87,42.76-5.61,12.48-11.24,25-17.3,37.22-1.25,2.53-4.38,5.79-6.73,5.85C768.65,716.2,750.35,716,729.93,716Z"/><path class="cls-2" d="M144.84,477.89c19.23,0,37.56-.3,55.87.32,2.8.1,6.55,3.92,8,6.91,12,24.58,23.5,49.38,35.89,75.64,1.71-3.33,3.06-5.65,4.13-8.09,10-22.58,20.06-45.11,29.68-67.83,2.33-5.49,5.4-7.22,11.2-7.09,17,.37,34,.13,52.49.13-2.11,4.25-3.5,7.46-5.23,10.47-18.66,32.42-37.19,64.91-56.22,97.1-3.71,6.27-4,10.81-.18,17.18,20.26,34.18,40,68.67,59.91,103.07,1.62,2.81,3.08,5.72,5.5,10.25-20.26,0-39.17.27-58.05-.33-2.42-.08-5.42-4.31-6.91-7.24-13-25.55-25.76-51.25-39.29-78.31-1.77,3.43-3.15,5.79-4.26,8.27-10.48,23.45-21,46.86-31.27,70.42-2.3,5.3-5.17,7.57-11.23,7.42-17-.44-34-.15-53-.15,2.35-4.41,3.89-7.49,5.59-10.47,19.19-33.64,38.16-67.42,57.83-100.79,4.15-7.06,3.75-12-.19-18.82-20-34.71-39.48-69.73-59.13-104.65A30.46,30.46,0,0,1,144.84,477.89Z"/><path class="cls-2" d="M700.8,487.21,690,526.06c-18.5-2.75-35.74-5.93-53.12-7.56-6.28-.59-13.39,1.47-19.28,4.16-16.27,7.46-17.8,26.26-2.76,36,8.61,5.56,18.49,9.13,27.77,13.65,12.86,6.28,26.66,11.2,38.38,19.16,43.67,29.7,38.25,94.27-9.76,116.13-38.63,17.59-77.94,14.5-117,.56-5.43-1.93-6.87-4.62-5.08-10.52,3.56-11.76,6.06-23.84,8.5-33.74,19.32,3.92,37.64,8.64,56.27,11,8.83,1.11,18.91-.65,27.24-4,18.47-7.47,20.51-30.05,3.56-40.57C632.89,623,619.61,618,606.77,612.48c-17.74-7.6-34.41-16.7-45.74-32.89-18.17-26-11.2-65.25,14.28-85.55C608.16,467.88,670.23,470.06,700.8,487.21Z"/><path class="cls-2" d="M429.34,671h94.21v44.25H376.23V478.43h53.11Z"/></svg>