<svg id="Layer_1" data-name="Layer 1" xmlns="http://www.w3.org/2000/svg" xmlns:xlink="http://www.w3.org/1999/xlink" viewBox="0 0 1080 1080"><defs><style>.cls-1{fill:none;}.cls-2{clipPath:url(#clipPath);}</style><clipPath id="clipPath"><rect class="cls-1" x="19.3" y="19.3" width="1041.4" height="1041.4"/></clipPath></defs><g class="cls-2"><path d="M19.3,439.51c7-16.77,16.86-30.77,36-34.94a76.25,76.25,0,0,1,16-1.49c40.93-.12,81.88.18,122.81-.35a29.51,29.51,0,0,0,17.06-6.23Q335,294.62,458.29,192.15c24.54-20.28,53.57-18.16,71.18,5.51,4.62,6.21,6.75,14.49,9.09,22.1,1.25,4.06.68,8.73.68,13.12q0,311.61,0,623.22c0,26.06-9.71,42.42-29.62,50.5-18.61,7.55-35.09,3.27-50-9.08q-75-62.1-150-124.28c-33.07-27.41-66-55-99.36-82a26.63,26.63,0,0,0-15.35-5.52c-38.56-.46-77.17-1.27-115.69.08-29.22,1-49.79-8.82-59.86-37.14Z"/><path d="M1059.34,528.65c-2.48,161.52-48.41,290.62-140.58,402.94-16.15,19.68-38.28,25.49-58.66,16-23.6-11-37.7-34.87-32.38-58.3,2.07-9.13,7.37-18.21,13.27-25.66,32.74-41.34,59.77-85.89,78.91-135.1,27.46-70.63,39.13-143.66,33.88-219.39-6.57-94.7-37.89-180.46-92.73-257.69-9.58-13.49-20.41-26.09-30.83-39-20.82-25.76-17-53.15,10.84-75.86,20.87-17.06,49.59-12.75,69.06,9.93,72.5,84.41,119.69,181.06,138.75,290.73C1055,472.76,1057.16,509,1059.34,528.65Z"/><path d="M830.93,544.81q-1.65,122.94-73.44,222.53c-16.2,22.51-44.18,28.66-66,14.41-27.43-17.85-36-47.59-19.31-72.4,20.18-29.93,37.35-61.05,45.8-96.38,19.8-82.8,6-159.32-43-229.34-6.88-9.83-14.34-20.06-17.87-31.26-7-22.25,6.78-47.15,30.29-59.09,20.2-10.26,43.39-5.66,58.38,12.89C791,362.11,818.84,425.63,827.1,497.34,828.92,513.1,829.68,529,830.93,544.81Z"/></g></svg>