<svg id="Layer_1" data-name="Layer 1" xmlns="http://www.w3.org/2000/svg" viewBox="0 0 1080 1080"><path d="M255.77,27.55H692.14c1.13.6,2.2,1.56,3.4,1.75,24.59,4,45,15.88,62.38,33.29Q821.61,126.27,885.29,190c23.56,23.54,35.24,51.75,35.1,85.25-.31,73.72-.09,147.43-.09,221.15V507.9c4.53.75,7.79,1.42,11.09,1.81,40,4.63,68.37,34.64,68.66,75.14q.88,126.07,0,252.17c-.23,30-14.33,53.37-41.51,66.78-11.31,5.58-24.42,7.49-38.24,11.52,0,8.16.14,18.08,0,28-1,58.13-51.05,108.81-109.05,108.91q-271.17.48-542.35,0c-51.57-.07-99-41.1-106.95-92.11-2.37-15.31-2.17-31-3.19-47.13-1.89-.23-3.81-.54-5.74-.68-42.08-3-72.67-33.56-73-75.3q-1-126.07,0-252.16c.21-36.3,23.83-65.12,58.83-73.86,6.65-1.66,13.63-2,21-3V495.37q0-177.12,0-354.24c0-50,31-92.6,78.22-108.15C243.87,31.05,249.83,29.35,255.77,27.55ZM219.7,507.74h640v-232c-37.32,0-74,.06-110.61,0-42.67-.09-70.76-28.16-70.86-70.77-.08-35.36,0-70.72,0-106.08V87.56H666q-192.64,0-385.29,0c-39.76,0-61,21.35-61,61.24q0,173.63,0,347.26ZM539,852.36H916.22c18.86,0,23.84-4.85,23.85-23.44q0-118.08,0-236.16c0-18.54-4.65-23.31-22.77-23.31q-377.25,0-754.5,0c-18.18,0-22.85,4.75-22.85,23.23q0,118.07,0,236.15c0,18.63,5,23.53,23.77,23.53ZM219.7,913.13c0,8.12-.12,15.71,0,23.29.6,33.31,22.82,55.87,56.23,55.9q264.06.25,528.14,0c26.85,0,48.46-15.34,53.69-39.19,2.8-12.75,2.34-26.21,3.4-40ZM738.14,130.78c0,25.08.1,49.69,0,74.3-.05,7.68,3.48,10.73,11,10.67,19.62-.17,39.25-.06,58.88-.06H823Z"/><path d="M474.69,711.15q0-45,0-90c0-15.07,4.69-22,19.46-22.08,27.56-.12,55.42-.25,82.6,3.59,29.45,4.15,48.44,28.6,49,58.33.65,32.32.85,64.68.09,97-.92,39.32-25.17,64-64.55,65.8-22.3,1-44.68.61-67,.3-13.75-.19-19.57-6.72-19.61-20.87C474.63,772.51,474.69,741.83,474.69,711.15Zm49.24,70.92c10.83,0,20.81.57,30.69-.14,12.84-.93,21-7.63,21.85-20.47,1.54-21.9,1.51-43.93,1.6-65.9,0-12-.64-24-1.76-35.87-.78-8.31-5.88-15.18-13.93-16.49-12.51-2-25.37-2-38.45-2.81Z"/><path d="M347.77,742.1v55.66c0,21.76-10.72,30.39-32.27,26-11.42-2.34-15.86-7.54-15.87-19.22q-.08-93.5,0-187c0-11.71,4-18.18,15.11-18.26,29.57-.23,59.4-1,88.65,2.53,27.92,3.32,45,22.07,49.26,50.26,3.35,22.39,3,45-11.11,64.26-12.37,16.94-30.57,24.29-50.94,25.62C376.73,742.83,362.76,742.1,347.77,742.1Zm.45-36.24c9,0,16.93-.13,24.85,0,25.71.47,33.95-10.81,32.22-38.37-.74-11.92-4.51-23.38-18.1-25.1-12.65-1.6-25.66-.34-39-.34Z"/><path d="M705.58,641c0,15.7,0,29.66,0,43.63,0,2.25.29,4.5.52,7.87,13.71,0,26.94-.1,40.17,0,14.3.13,21.35,8.21,19.74,22.33-1.11,9.68-6.61,15-16.44,15.17-14.25.22-28.52.06-43.44.06-.22,4.08-.55,7.3-.56,10.52q-.06,28.49,0,57c0,23.13-18.61,34.18-39.83,23.75-6.48-3.19-9.1-8.53-9.1-15.34q-.07-94.49,0-189c0-9.71,4.93-15.63,14.53-17.27a77.56,77.56,0,0,1,12.88-1.29q47-.16,94,0c15,0,22.22,6.47,21.59,21s-5,22.19-21.91,21.73c-20-.56-40-.13-60-.13Z"/></svg>