<svg width="22" height="14" viewBox="0 0 22 14" fill="none" xmlns="http://www.w3.org/2000/svg">
	<path d="M7.46439 13.8911C8.66883 11.8911 9.81328 9.99108 10.9977 8.01774C12.1844 9.98885 13.3422 11.9066 14.5355 13.8889C16.8466 10.04 19.1199 6.2533 21.4399 2.39108C20.7533 2.39108 20.1466 2.37552 19.5444 2.40441C19.4266 2.41108 19.2866 2.57774 19.2111 2.70441C17.7222 5.16663 16.2444 7.63552 14.7599 10.1C14.6999 10.2 14.6266 10.2911 14.5222 10.4444C14.0911 9.73552 13.6822 9.06441 13.2755 8.3933C12.9133 7.7933 12.5444 7.19774 12.1999 6.58886C12.1311 6.46663 12.0799 6.24886 12.1399 6.14886C12.8399 4.98663 13.4955 3.79108 14.2955 2.69997C15.2622 1.37774 16.6422 0.666633 18.2755 0.468855C18.3488 0.459966 18.4244 0.448855 18.4977 0.435522C18.5266 0.431077 18.5511 0.415522 18.5777 0.402189C17.5733 -0.157811 15.6599 0.102188 14.0977 1.01108C12.6799 1.83552 11.7888 3.12663 11.0155 4.62885C10.7133 4.12663 10.4755 3.70219 10.2111 3.29997C8.87328 1.26885 7.04883 0.0955218 4.55328 0.144411C4.17328 0.151077 3.79327 0.248855 3.41327 0.393299C3.48439 0.415522 3.5555 0.448855 3.62883 0.457744C5.66661 0.691077 7.19327 1.7133 8.25327 3.4533C8.77327 4.30663 9.29327 5.15997 9.79327 6.02441C9.86883 6.1533 9.91105 6.38663 9.84439 6.49997C9.09105 7.78663 8.31327 9.05774 7.53994 10.3333C7.52661 10.3555 7.49327 10.3644 7.42661 10.4089C7.00439 9.70886 6.57994 9.0133 6.15772 8.3133C5.0355 6.44663 3.91327 4.58219 2.80216 2.71108C2.66216 2.47552 2.5155 2.3733 2.23994 2.38441C1.71994 2.40663 1.19772 2.39108 0.557718 2.39108C2.87772 6.25108 5.1555 10.0444 7.46439 13.8911Z" fill="#5350A2" />
</svg>
	